<svg xmlns="http://www.w3.org/2000/svg" xmlns:xlink="http://www.w3.org/1999/xlink" width="1080" zoomAndPan="magnify" viewBox="0 0 810 307.91998" height="400" preserveAspectRatio="xMidYMid meet" version="1.0"><defs><g/><clipPath id="a773f95670"><path d="M 370.289062 127.824219 L 439.710938 127.824219 L 439.710938 197.242188 L 370.289062 197.242188 Z M 370.289062 127.824219 " clip-rule="nonzero"/></clipPath><clipPath id="416428385b"><path d="M 405 127.824219 C 385.832031 127.824219 370.289062 143.363281 370.289062 162.53125 C 370.289062 181.703125 385.832031 197.242188 405 197.242188 C 424.167969 197.242188 439.710938 181.703125 439.710938 162.53125 C 439.710938 143.363281 424.167969 127.824219 405 127.824219 Z M 405 127.824219 " clip-rule="nonzero"/></clipPath><clipPath id="8935fa5776"><path d="M 0.289062 0.824219 L 69.710938 0.824219 L 69.710938 70.242188 L 0.289062 70.242188 Z M 0.289062 0.824219 " clip-rule="nonzero"/></clipPath><clipPath id="5b26c25b1a"><path d="M 35 0.824219 C 15.832031 0.824219 0.289062 16.363281 0.289062 35.53125 C 0.289062 54.703125 15.832031 70.242188 35 70.242188 C 54.167969 70.242188 69.710938 54.703125 69.710938 35.53125 C 69.710938 16.363281 54.167969 0.824219 35 0.824219 Z M 35 0.824219 " clip-rule="nonzero"/></clipPath><clipPath id="9c084b177b"><rect x="0" width="70" y="0" height="71"/></clipPath></defs><g fill="#ffffff" fill-opacity="1"><g transform="translate(150.950663, 190.825402)"><g><path d="M 3.46875 0 C 2.832031 0 2.253906 -0.253906 1.734375 -0.765625 C 1.210938 -1.285156 0.953125 -1.867188 0.953125 -2.515625 C 0.953125 -2.984375 0.992188 -3.335938 1.078125 -3.578125 L 28.921875 -80.171875 C 29.710938 -82.484375 31.300781 -83.640625 33.6875 -83.640625 L 52.328125 -83.640625 C 54.722656 -83.640625 56.316406 -82.484375 57.109375 -80.171875 L 84.953125 -3.578125 C 85.035156 -3.335938 85.078125 -2.984375 85.078125 -2.515625 C 85.078125 -1.867188 84.816406 -1.285156 84.296875 -0.765625 C 83.773438 -0.253906 83.195312 0 82.5625 0 L 67.03125 0 C 65.113281 0 63.757812 -0.875 62.96875 -2.625 L 58.671875 -14.21875 L 27.359375 -14.21875 L 23.0625 -2.625 C 22.257812 -0.875 20.90625 0 19 0 Z M 32.375 -32.140625 L 53.65625 -32.140625 L 43.015625 -62.609375 Z M 32.375 -32.140625 "/></g></g></g><g fill="#ffffff" fill-opacity="1"><g transform="translate(236.137544, 190.825402)"><g><path d="M 37.875 26.28125 C 30.226562 26.28125 24.015625 25.046875 19.234375 22.578125 C 14.453125 20.109375 11.023438 17.257812 8.953125 14.03125 C 6.890625 10.8125 5.859375 8.125 5.859375 5.96875 C 5.859375 5.175781 6.175781 4.5 6.8125 3.9375 C 7.445312 3.382812 8.164062 3.109375 8.96875 3.109375 L 24.96875 3.109375 C 25.769531 3.109375 26.40625 3.285156 26.875 3.640625 C 27.351562 4.003906 27.796875 4.625 28.203125 5.5 C 28.992188 7.25 30.023438 8.617188 31.296875 9.609375 C 32.578125 10.609375 34.570312 11.109375 37.28125 11.109375 C 40.707031 11.109375 43.253906 10.25 44.921875 8.53125 C 46.597656 6.820312 47.4375 3.976562 47.4375 0 L 47.4375 -8 C 43.21875 -3.625 37.441406 -1.4375 30.109375 -1.4375 C 22.066406 -1.4375 15.910156 -3.765625 11.640625 -8.421875 C 7.378906 -13.078125 5.050781 -19.945312 4.65625 -29.03125 L 4.546875 -32.265625 C 4.546875 -41.984375 6.710938 -49.585938 11.046875 -55.078125 C 15.390625 -60.578125 21.742188 -63.328125 30.109375 -63.328125 C 34.171875 -63.328125 37.753906 -62.550781 40.859375 -61 C 43.972656 -59.445312 46.5625 -57.351562 48.625 -54.71875 L 48.625 -59.03125 C 48.625 -59.90625 48.898438 -60.640625 49.453125 -61.234375 C 50.015625 -61.828125 50.738281 -62.125 51.625 -62.125 L 66.1875 -62.125 C 67.070312 -62.125 67.8125 -61.828125 68.40625 -61.234375 C 69 -60.640625 69.296875 -59.90625 69.296875 -59.03125 L 69.296875 -1.796875 C 69.296875 7.367188 66.546875 14.335938 61.046875 19.109375 C 55.554688 23.890625 47.832031 26.28125 37.875 26.28125 Z M 36.921875 -17.5625 C 40.347656 -17.5625 42.894531 -18.597656 44.5625 -20.671875 C 46.238281 -22.742188 47.195312 -25.375 47.4375 -28.5625 C 47.519531 -29.113281 47.5625 -30.304688 47.5625 -32.140625 C 47.5625 -34.054688 47.519531 -35.25 47.4375 -35.71875 C 47.195312 -38.988281 46.238281 -41.640625 44.5625 -43.671875 C 42.894531 -45.703125 40.347656 -46.71875 36.921875 -46.71875 C 33.410156 -46.71875 30.859375 -45.660156 29.265625 -43.546875 C 27.679688 -41.441406 26.804688 -38.515625 26.640625 -34.765625 L 26.53125 -32.140625 C 26.53125 -27.597656 27.285156 -24.03125 28.796875 -21.4375 C 30.304688 -18.851562 33.015625 -17.5625 36.921875 -17.5625 Z M 36.921875 -17.5625 "/></g></g></g><g fill="#ffffff" fill-opacity="1"><g transform="translate(312.363708, 190.825402)"><g><path d="M 9.796875 0 C 9.003906 0 8.304688 -0.296875 7.703125 -0.890625 C 7.109375 -1.492188 6.8125 -2.191406 6.8125 -2.984375 L 6.8125 -59.03125 C 6.8125 -59.90625 7.085938 -60.640625 7.640625 -61.234375 C 8.203125 -61.828125 8.921875 -62.125 9.796875 -62.125 L 24.375 -62.125 C 25.25 -62.125 25.984375 -61.828125 26.578125 -61.234375 C 27.179688 -60.640625 27.484375 -59.90625 27.484375 -59.03125 L 27.484375 -54.484375 C 29.710938 -56.953125 32.316406 -58.84375 35.296875 -60.15625 C 38.285156 -61.46875 41.613281 -62.125 45.28125 -62.125 L 50.65625 -62.125 C 51.53125 -62.125 52.25 -61.84375 52.8125 -61.28125 C 53.375 -60.726562 53.65625 -60.015625 53.65625 -59.140625 L 53.65625 -46.125 C 53.65625 -45.320312 53.375 -44.625 52.8125 -44.03125 C 52.25 -43.4375 51.53125 -43.140625 50.65625 -43.140625 L 38.59375 -43.140625 C 35.40625 -43.140625 32.953125 -42.257812 31.234375 -40.5 C 29.523438 -38.75 28.671875 -36.28125 28.671875 -33.09375 L 28.671875 -2.984375 C 28.671875 -2.109375 28.375 -1.390625 27.78125 -0.828125 C 27.1875 -0.273438 26.445312 0 25.5625 0 Z M 9.796875 0 "/></g></g></g><g fill="#ffffff" fill-opacity="1"><g transform="translate(365.172331, 190.825402)"><g/></g></g><g fill="#ffffff" fill-opacity="1"><g transform="translate(390.262452, 190.825402)"><g/></g></g><g fill="#ffffff" fill-opacity="1"><g transform="translate(415.352572, 190.825402)"><g/></g></g><g fill="#ffffff" fill-opacity="1"><g transform="translate(440.445731, 190.825402)"><g><path d="M 9.796875 0 C 9.003906 0 8.304688 -0.296875 7.703125 -0.890625 C 7.109375 -1.492188 6.8125 -2.191406 6.8125 -2.984375 L 6.8125 -59.03125 C 6.8125 -59.90625 7.085938 -60.640625 7.640625 -61.234375 C 8.203125 -61.828125 8.921875 -62.125 9.796875 -62.125 L 24.375 -62.125 C 25.25 -62.125 25.984375 -61.828125 26.578125 -61.234375 C 27.179688 -60.640625 27.484375 -59.90625 27.484375 -59.03125 L 27.484375 -54.484375 C 29.710938 -56.953125 32.316406 -58.84375 35.296875 -60.15625 C 38.285156 -61.46875 41.613281 -62.125 45.28125 -62.125 L 50.65625 -62.125 C 51.53125 -62.125 52.25 -61.84375 52.8125 -61.28125 C 53.375 -60.726562 53.65625 -60.015625 53.65625 -59.140625 L 53.65625 -46.125 C 53.65625 -45.320312 53.375 -44.625 52.8125 -44.03125 C 52.25 -43.4375 51.53125 -43.140625 50.65625 -43.140625 L 38.59375 -43.140625 C 35.40625 -43.140625 32.953125 -42.257812 31.234375 -40.5 C 29.523438 -38.75 28.671875 -36.28125 28.671875 -33.09375 L 28.671875 -2.984375 C 28.671875 -2.109375 28.375 -1.390625 27.78125 -0.828125 C 27.1875 -0.273438 26.445312 0 25.5625 0 Z M 9.796875 0 "/></g></g></g><g fill="#ffffff" fill-opacity="1"><g transform="translate(495.04658, 190.825402)"><g><path d="M 35.96875 1.1875 C 26.25 1.1875 18.597656 -1.414062 13.015625 -6.625 C 7.441406 -11.84375 4.578125 -19.429688 4.421875 -29.390625 L 4.421875 -33.09375 C 4.742188 -42.570312 7.691406 -49.976562 13.265625 -55.3125 C 18.835938 -60.65625 26.363281 -63.328125 35.84375 -63.328125 C 42.695312 -63.328125 48.492188 -61.953125 53.234375 -59.203125 C 57.972656 -56.453125 61.515625 -52.664062 63.859375 -47.84375 C 66.210938 -43.03125 67.390625 -37.554688 67.390625 -31.421875 L 67.390625 -28.4375 C 67.390625 -27.5625 67.085938 -26.820312 66.484375 -26.21875 C 65.890625 -25.625 65.15625 -25.328125 64.28125 -25.328125 L 26.40625 -25.328125 L 26.40625 -24.609375 C 26.488281 -21.023438 27.328125 -18.140625 28.921875 -15.953125 C 30.515625 -13.765625 32.78125 -12.671875 35.71875 -12.671875 C 37.632812 -12.671875 39.171875 -13.046875 40.328125 -13.796875 C 41.484375 -14.554688 42.578125 -15.535156 43.609375 -16.734375 C 44.328125 -17.523438 44.90625 -18.019531 45.34375 -18.21875 C 45.78125 -18.414062 46.476562 -18.515625 47.4375 -18.515625 L 63.09375 -18.515625 C 63.800781 -18.515625 64.414062 -18.296875 64.9375 -17.859375 C 65.457031 -17.421875 65.71875 -16.882812 65.71875 -16.25 C 65.71875 -14.175781 64.539062 -11.742188 62.1875 -8.953125 C 59.84375 -6.171875 56.421875 -3.785156 51.921875 -1.796875 C 47.421875 0.191406 42.101562 1.1875 35.96875 1.1875 Z M 45.40625 -37.515625 L 45.40625 -37.75 C 45.40625 -41.582031 44.566406 -44.550781 42.890625 -46.65625 C 41.222656 -48.769531 38.875 -49.828125 35.84375 -49.828125 C 32.820312 -49.828125 30.492188 -48.769531 28.859375 -46.65625 C 27.222656 -44.550781 26.40625 -41.582031 26.40625 -37.75 L 26.40625 -37.515625 Z M 45.40625 -37.515625 "/></g></g></g><g fill="#ffffff" fill-opacity="1"><g transform="translate(566.374194, 190.825402)"><g><path d="M 30.109375 1.1875 C 22.378906 1.1875 16.300781 -1.238281 11.875 -6.09375 C 7.457031 -10.945312 5.09375 -17.878906 4.78125 -26.890625 L 4.65625 -31.0625 L 4.78125 -35.375 C 5.09375 -44.050781 7.476562 -50.878906 11.9375 -55.859375 C 16.40625 -60.835938 22.460938 -63.328125 30.109375 -63.328125 C 37.273438 -63.328125 43.050781 -61.015625 47.4375 -56.390625 L 47.4375 -81.84375 C 47.4375 -82.71875 47.734375 -83.429688 48.328125 -83.984375 C 48.929688 -84.546875 49.628906 -84.828125 50.421875 -84.828125 L 65.828125 -84.828125 C 66.710938 -84.828125 67.453125 -84.546875 68.046875 -83.984375 C 68.640625 -83.429688 68.9375 -82.71875 68.9375 -81.84375 L 68.9375 -2.984375 C 68.9375 -2.109375 68.640625 -1.390625 68.046875 -0.828125 C 67.453125 -0.273438 66.710938 0 65.828125 0 L 51.625 0 C 50.820312 0 50.117188 -0.296875 49.515625 -0.890625 C 48.921875 -1.492188 48.625 -2.191406 48.625 -2.984375 L 48.625 -6.6875 C 44.320312 -1.4375 38.148438 1.1875 30.109375 1.1875 Z M 37.046875 -15.40625 C 40.460938 -15.40625 43.007812 -16.5 44.6875 -18.6875 C 46.363281 -20.882812 47.28125 -23.65625 47.4375 -27 C 47.59375 -29.226562 47.671875 -30.742188 47.671875 -31.546875 C 47.671875 -32.421875 47.59375 -33.894531 47.4375 -35.96875 C 47.28125 -39.070312 46.34375 -41.640625 44.625 -43.671875 C 42.914062 -45.703125 40.390625 -46.71875 37.046875 -46.71875 C 33.453125 -46.71875 30.878906 -45.660156 29.328125 -43.546875 C 27.773438 -41.441406 26.878906 -38.515625 26.640625 -34.765625 L 26.53125 -31.0625 L 26.640625 -27.359375 C 26.878906 -23.617188 27.773438 -20.691406 29.328125 -18.578125 C 30.878906 -16.460938 33.453125 -15.40625 37.046875 -15.40625 Z M 37.046875 -15.40625 "/></g></g></g><g clip-path="url(#a773f95670)"><g clip-path="url(#416428385b)"><g transform="matrix(1, 0, 0, 1, 370, 127)"><g clip-path="url(#9c084b177b)"><g clip-path="url(#8935fa5776)"><g clip-path="url(#5b26c25b1a)"><path fill="#ffffff" d="M 0.289062 0.824219 L 69.710938 0.824219 L 69.710938 70.242188 L 0.289062 70.242188 Z M 0.289062 0.824219 " fill-opacity="1" fill-rule="nonzero"/></g></g></g></g></g></g><path fill="#ffffff" d="M 404.359375 130.101562 C 403.378906 127.84375 401.921875 123.445312 403.351562 118.746094 C 405.703125 111.042969 414.925781 105.515625 426.019531 106.230469 C 427.496094 115.632812 423.863281 124.441406 417.019531 128.367188 C 412.410156 131.015625 407.636719 130.707031 405.375 130.390625 C 407.691406 128.636719 410.289062 126.382812 412.886719 123.527344 C 416.898438 119.121094 419.574219 114.75 421.347656 111.261719 C 418.800781 114.8125 415.742188 118.648438 412.089844 122.566406 C 409.453125 125.394531 406.847656 127.894531 404.359375 130.101562 Z M 404.359375 130.101562 " fill-opacity="1" fill-rule="nonzero"/><path fill="#ffffff" d="M 401.402344 130.347656 C 399.671875 130.871094 396.335938 131.558594 393.03125 130.113281 C 387.613281 127.742188 384.367188 120.546875 385.835938 112.511719 C 392.820312 112.238281 398.933594 115.636719 401.214844 120.964844 C 402.753906 124.550781 402.121094 128.007812 401.699219 129.632812 C 400.617188 127.792969 399.195312 125.703125 397.332031 123.566406 C 394.460938 120.265625 391.5 117.941406 389.105469 116.351562 C 391.480469 118.511719 394.015625 121.066406 396.5625 124.066406 C 398.402344 126.230469 400.003906 128.34375 401.402344 130.347656 Z M 401.402344 130.347656 " fill-opacity="1" fill-rule="nonzero"/></svg>