<svg xmlns="http://www.w3.org/2000/svg" xmlns:xlink="http://www.w3.org/1999/xlink" width="500" zoomAndPan="magnify" viewBox="0 0 375 374.999991" height="500" preserveAspectRatio="xMidYMid meet" version="1.0"><defs><clipPath id="15760654f5"><path d="M 256.9375 267.769531 L 375 267.769531 L 375 287.269531 L 256.9375 287.269531 Z M 256.9375 267.769531 " clip-rule="nonzero"/></clipPath><clipPath id="7f0769afaa"><path d="M 59 63 L 300 63 L 300 293 L 59 293 Z M 59 63 " clip-rule="nonzero"/></clipPath><clipPath id="a753787d5e"><path d="M 17.652344 206.976562 L 240.589844 31.847656 L 354.101562 176.34375 L 131.164062 351.472656 Z M 17.652344 206.976562 " clip-rule="nonzero"/></clipPath><clipPath id="d337aab720"><path d="M 17.652344 206.976562 L 240.589844 31.847656 L 354.101562 176.34375 L 131.164062 351.472656 Z M 17.652344 206.976562 " clip-rule="nonzero"/></clipPath><clipPath id="ff21bb69e6"><path d="M 17.652344 206.976562 L 240.589844 31.847656 L 354.101562 176.34375 L 131.164062 351.472656 Z M 17.652344 206.976562 " clip-rule="nonzero"/></clipPath><clipPath id="90207067df"><path d="M 132 138 L 163 138 L 163 169 L 132 169 Z M 132 138 " clip-rule="nonzero"/></clipPath><clipPath id="cf99b2de54"><path d="M 17.652344 206.976562 L 240.589844 31.847656 L 354.101562 176.34375 L 131.164062 351.472656 Z M 17.652344 206.976562 " clip-rule="nonzero"/></clipPath><clipPath id="c0623b279c"><path d="M 17.652344 206.976562 L 240.589844 31.847656 L 354.101562 176.34375 L 131.164062 351.472656 Z M 17.652344 206.976562 " clip-rule="nonzero"/></clipPath><clipPath id="aafb022fc2"><path d="M 17.652344 206.976562 L 240.589844 31.847656 L 354.101562 176.34375 L 131.164062 351.472656 Z M 17.652344 206.976562 " clip-rule="nonzero"/></clipPath><clipPath id="e234600e00"><path d="M 59 76 L 300 76 L 300 293 L 59 293 Z M 59 76 " clip-rule="nonzero"/></clipPath><clipPath id="0b74e23df4"><path d="M 17.652344 206.976562 L 240.589844 31.847656 L 354.101562 176.34375 L 131.164062 351.472656 Z M 17.652344 206.976562 " clip-rule="nonzero"/></clipPath><clipPath id="e8e9599e22"><path d="M 17.652344 206.976562 L 240.589844 31.847656 L 354.101562 176.34375 L 131.164062 351.472656 Z M 17.652344 206.976562 " clip-rule="nonzero"/></clipPath><clipPath id="380f5f73e0"><path d="M 17.652344 206.976562 L 240.589844 31.847656 L 354.101562 176.34375 L 131.164062 351.472656 Z M 17.652344 206.976562 " clip-rule="nonzero"/></clipPath><clipPath id="702f151746"><path d="M 194 81 L 263 81 L 263 241 L 194 241 Z M 194 81 " clip-rule="nonzero"/></clipPath><clipPath id="0f044669cf"><path d="M 17.652344 206.976562 L 240.589844 31.847656 L 354.101562 176.34375 L 131.164062 351.472656 Z M 17.652344 206.976562 " clip-rule="nonzero"/></clipPath><clipPath id="ce783739b2"><path d="M 17.652344 206.976562 L 240.589844 31.847656 L 354.101562 176.34375 L 131.164062 351.472656 Z M 17.652344 206.976562 " clip-rule="nonzero"/></clipPath><clipPath id="a343f7e2ba"><path d="M 17.652344 206.976562 L 240.589844 31.847656 L 354.101562 176.34375 L 131.164062 351.472656 Z M 17.652344 206.976562 " clip-rule="nonzero"/></clipPath></defs><rect x="-37.5" width="450" fill="#ffffff" y="-37.499999" height="449.999989" fill-opacity="1"/><rect x="-37.5" width="450" fill="#ffffff" y="-37.499999" height="449.999989" fill-opacity="1"/><g clip-path="url(#15760654f5)"><path fill="#ffffff" d="M 266.707031 267.886719 L 396.277344 267.769531 C 402.28125 267.757812 406.882812 273.054688 405.972656 278.933594 L 405.953125 279.050781 C 405.222656 283.78125 401.113281 287.269531 396.28125 287.269531 L 266.726562 287.269531 C 260.675781 287.269531 256.078125 281.890625 257.074219 275.980469 C 257.863281 271.316406 261.933594 267.894531 266.707031 267.886719 " fill-opacity="1" fill-rule="nonzero"/></g><g clip-path="url(#7f0769afaa)"><g clip-path="url(#a753787d5e)"><g clip-path="url(#d337aab720)"><g clip-path="url(#ff21bb69e6)"><path fill="#ae1f24" d="M 77.433594 277.828125 C 88.121094 286.882812 124.066406 302.308594 186.28125 282.71875 C 240.40625 265.613281 277.769531 225.4375 293.511719 170.910156 C 298.410156 154.15625 300.964844 136.449219 297.425781 119.382812 C 293.902344 102.152344 283.460938 86.417969 269.199219 76.050781 C 263.136719 71.589844 256.320312 68.066406 249.054688 65.847656 C 224.886719 58.5625 196.539062 66.5 180.1875 85.785156 C 162.980469 106.25 159.851562 136.3125 141.234375 155.648438 C 127.964844 169.417969 108.816406 175.636719 92.601562 185.714844 C 88.890625 187.90625 85.496094 190.296875 82.242188 193.03125 C 69.851562 203.4375 61.410156 218.542969 60.089844 234.601562 C 58.769531 250.660156 65.101562 267.378906 77.433594 277.828125 Z M 77.433594 277.828125 " fill-opacity="1" fill-rule="nonzero"/></g></g></g></g><g clip-path="url(#90207067df)"><g clip-path="url(#cf99b2de54)"><g clip-path="url(#c0623b279c)"><g clip-path="url(#aafb022fc2)"><path fill="#fee7db" d="M 144.945312 164.082031 C 152.550781 158.882812 159.375 151.960938 162.386719 143.257812 C 162.691406 142.371094 162.960938 141.421875 162.761719 140.507812 C 162.234375 138.128906 158.800781 137.550781 156.746094 138.867188 C 154.691406 140.1875 153.65625 142.574219 152.535156 144.742188 C 148.882812 151.773438 143.136719 157.699219 136.222656 161.570312 C 134.90625 162.308594 133.476562 163.039062 132.722656 164.34375 C 131.964844 165.648438 132.332031 167.714844 133.789062 168.105469 C 134.40625 168.273438 135.0625 168.105469 135.675781 167.921875 C 137.804688 167.277344 140.335938 167.230469 144.945312 164.082031 Z M 144.945312 164.082031 " fill-opacity="1" fill-rule="nonzero"/></g></g></g></g><g clip-path="url(#e234600e00)"><g clip-path="url(#0b74e23df4)"><g clip-path="url(#e8e9599e22)"><g clip-path="url(#380f5f73e0)"><path fill="#7e1416" d="M 77.433594 277.828125 C 88.121094 286.882812 124.066406 302.308594 186.28125 282.71875 C 240.40625 265.613281 277.769531 225.4375 293.511719 170.910156 C 298.410156 154.15625 300.964844 136.449219 297.425781 119.382812 C 293.902344 102.152344 283.460938 86.417969 269.199219 76.050781 C 275.96875 109.820312 273.617188 145.394531 261.09375 177.492188 C 248.253906 210.316406 224.695312 239.199219 194.21875 257.09375 C 172.570312 269.886719 146.304688 277 122.09375 270.210938 C 98.046875 263.441406 77.8125 239.90625 80.65625 215.015625 C 81.828125 204.472656 86.78125 194.761719 92.601562 185.714844 C 88.890625 187.90625 85.496094 190.296875 82.242188 193.03125 C 69.851562 203.4375 61.410156 218.542969 60.089844 234.601562 C 58.769531 250.660156 65.101562 267.378906 77.433594 277.828125 Z M 77.433594 277.828125 " fill-opacity="1" fill-rule="nonzero"/></g></g></g></g><g clip-path="url(#702f151746)"><g clip-path="url(#0f044669cf)"><g clip-path="url(#ce783739b2)"><g clip-path="url(#a343f7e2ba)"><path fill="#b45f52" d="M 194.386719 240.792969 C 229.089844 214.40625 249.921875 173.039062 259.855469 130.601562 C 263.164062 116.464844 265.152344 100.664062 257.671875 88.234375 C 255.363281 84.398438 251.140625 80.742188 246.863281 82.085938 C 244.898438 82.703125 243.375 84.289062 242.265625 86.027344 C 235.808594 96.175781 241.734375 109.210938 243.640625 121.078125 C 245.328125 131.609375 243.625 142.394531 241.234375 152.792969 C 234.496094 182.105469 222.25 210.144531 194.386719 240.792969 Z M 194.386719 240.792969 " fill-opacity="1" fill-rule="nonzero"/></g></g></g></g></svg>