<svg xmlns="http://www.w3.org/2000/svg" xmlns:xlink="http://www.w3.org/1999/xlink" width="500" zoomAndPan="magnify" viewBox="0 0 375 374.999991" height="500" preserveAspectRatio="xMidYMid meet" version="1.0"><defs><clipPath id="efef5afc7b"><path d="M 256.9375 267.769531 L 375 267.769531 L 375 287.269531 L 256.9375 287.269531 Z M 256.9375 267.769531 " clip-rule="nonzero"/></clipPath><clipPath id="35ad1f0a95"><path d="M 50.351562 77 L 186 77 L 186 132 L 50.351562 132 Z M 50.351562 77 " clip-rule="nonzero"/></clipPath></defs><rect x="-37.5" width="450" fill="#ffffff" y="-37.499999" height="449.999989" fill-opacity="1"/><rect x="-37.5" width="450" fill="#ffffff" y="-37.499999" height="449.999989" fill-opacity="1"/><g clip-path="url(#efef5afc7b)"><path fill="#ffffff" d="M 266.707031 267.886719 L 396.277344 267.769531 C 402.28125 267.757812 406.882812 273.054688 405.972656 278.933594 L 405.953125 279.050781 C 405.222656 283.78125 401.113281 287.269531 396.28125 287.269531 L 266.726562 287.269531 C 260.675781 287.269531 256.078125 281.890625 257.074219 275.980469 C 257.863281 271.316406 261.933594 267.894531 266.707031 267.886719 " fill-opacity="1" fill-rule="nonzero"/></g><path fill="#ff9500" d="M 313.757812 224.214844 C 300.457031 288.691406 238.742188 330.453125 175.914062 317.488281 C 113.089844 304.523438 74.121094 251.113281 87.425781 186.628906 C 100.726562 122.152344 159.765625 78.277344 222.59375 91.242188 C 285.417969 104.207031 327.0625 159.730469 313.757812 224.207031 Z M 313.757812 224.214844 " fill-opacity="1" fill-rule="nonzero"/><path fill="#ff8000" d="M 247.652344 99.105469 C 265.996094 123.136719 274.117188 154.460938 267.140625 188.25 C 253.839844 252.726562 192.125 294.488281 129.296875 281.523438 C 120.742188 279.757812 112.640625 277.242188 105.039062 274.046875 C 121.058594 295.695312 145.734375 311.265625 175.921875 317.496094 C 238.75 330.460938 300.464844 288.699219 313.765625 224.222656 C 325.207031 168.773438 296.011719 119.945312 247.652344 99.113281 Z M 247.652344 99.105469 " fill-opacity="1" fill-rule="nonzero"/><path fill="#ff6200" d="M 278.988281 118.765625 C 299.265625 143.21875 308.558594 175.945312 301.246094 211.390625 C 287.941406 275.867188 226.226562 317.628906 163.398438 304.664062 C 141.820312 300.214844 123.058594 290.988281 108.261719 278.175781 C 124.28125 297.667969 147.683594 311.667969 175.914062 317.496094 C 238.742188 330.460938 300.457031 288.699219 313.757812 224.222656 C 322.441406 182.140625 307.71875 143.878906 278.980469 118.765625 Z M 278.988281 118.765625 " fill-opacity="1" fill-rule="nonzero"/><path fill="#529730" d="M 213.21875 104.003906 C 213.238281 104.320312 213.136719 104.640625 212.910156 104.96875 C 212.679688 105.292969 212.332031 105.621094 211.863281 105.945312 C 211.398438 106.269531 210.816406 106.589844 210.125 106.898438 C 209.433594 107.210938 208.644531 107.511719 207.757812 107.796875 C 206.871094 108.082031 205.902344 108.347656 204.851562 108.597656 C 203.800781 108.847656 202.691406 109.074219 201.519531 109.273438 C 200.347656 109.476562 199.136719 109.652344 197.890625 109.800781 C 196.640625 109.949219 195.378906 110.070312 194.101562 110.160156 C 192.824219 110.246094 191.558594 110.304688 190.300781 110.332031 C 189.042969 110.355469 187.820312 110.347656 186.632812 110.3125 C 185.445312 110.273438 184.3125 110.203125 183.238281 110.101562 C 182.164062 110 181.167969 109.871094 180.25 109.710938 C 179.332031 109.550781 178.507812 109.363281 177.78125 109.148438 C 177.050781 108.9375 176.433594 108.703125 175.925781 108.445312 C 175.414062 108.1875 175.027344 107.914062 174.753906 107.621094 C 174.484375 107.332031 174.339844 107.027344 174.316406 106.710938 C 174.292969 106.394531 174.398438 106.074219 174.625 105.75 C 174.851562 105.421875 175.199219 105.097656 175.667969 104.769531 C 176.136719 104.445312 176.71875 104.128906 177.410156 103.816406 C 178.101562 103.503906 178.890625 103.207031 179.777344 102.921875 C 180.664062 102.636719 181.632812 102.367188 182.683594 102.117188 C 183.734375 101.871094 184.84375 101.644531 186.015625 101.441406 C 187.1875 101.238281 188.398438 101.0625 189.644531 100.914062 C 190.894531 100.765625 192.15625 100.644531 193.433594 100.558594 C 194.710938 100.46875 195.976562 100.410156 197.234375 100.386719 C 198.492188 100.359375 199.714844 100.367188 200.902344 100.40625 C 202.089844 100.445312 203.222656 100.511719 204.296875 100.613281 C 205.371094 100.714844 206.367188 100.847656 207.285156 101.007812 C 208.203125 101.167969 209.027344 101.351562 209.753906 101.566406 C 210.480469 101.777344 211.101562 102.011719 211.609375 102.269531 C 212.117188 102.527344 212.507812 102.800781 212.777344 103.09375 C 213.050781 103.386719 213.195312 103.691406 213.21875 104.003906 Z M 213.21875 104.003906 " fill-opacity="1" fill-rule="nonzero"/><path fill="#69ce4d" d="M 97.101562 54.335938 C 97.101562 54.335938 111.46875 46.976562 135.175781 51.988281 C 158.882812 56.992188 174.789062 70.457031 185.855469 85.371094 C 185.855469 85.371094 155.09375 94.671875 131.792969 85.246094 C 108.492188 75.820312 97.101562 54.339844 97.101562 54.339844 Z M 97.101562 54.335938 " fill-opacity="1" fill-rule="nonzero"/><path fill="#529730" d="M 173.332031 80.882812 C 173.332031 80.882812 148.230469 74.738281 111.074219 59.75 C 111.074219 59.75 152.0625 68.378906 173.332031 80.882812 Z M 173.332031 80.882812 " fill-opacity="1" fill-rule="nonzero"/><g clip-path="url(#35ad1f0a95)"><path fill="#69ce4d" d="M 50.386719 119.03125 C 50.386719 119.03125 62.300781 98.289062 95.796875 85.355469 C 129.296875 72.425781 159.941406 76.304688 185.738281 85.898438 C 185.738281 85.898438 155.027344 122.300781 118.453125 129.40625 C 81.878906 136.515625 50.378906 119.023438 50.378906 119.023438 Z M 50.386719 119.03125 " fill-opacity="1" fill-rule="nonzero"/></g><path fill="#529730" d="M 193.773438 108.65625 C 191.96875 108.65625 190.492188 107.214844 190.460938 105.40625 C 190.453125 104.824219 190.3125 95.78125 190.910156 87.046875 C 189.417969 87.554688 187.902344 87.960938 186.421875 88.246094 C 184.625 88.601562 182.890625 87.429688 182.535156 85.636719 C 182.183594 83.839844 183.355469 82.101562 185.148438 81.75 C 187.996094 81.191406 190.09375 80.449219 191.644531 79.660156 C 191.949219 77.542969 192.324219 75.636719 192.785156 74.113281 C 194.324219 69.070312 197.582031 69.101562 198.546875 69.226562 C 200.945312 69.550781 202.617188 71.714844 202.703125 74.621094 C 202.816406 78.3125 200.8125 81.273438 197.847656 83.5 C 197.074219 91.132812 197.003906 101.019531 197.074219 105.296875 C 197.105469 107.121094 195.648438 108.628906 193.824219 108.65625 C 193.800781 108.65625 193.785156 108.65625 193.765625 108.65625 Z M 193.773438 108.65625 " fill-opacity="1" fill-rule="nonzero"/><path fill="#529730" d="M 166.5625 90.453125 C 166.5625 90.453125 130.410156 103.101562 72.128906 114.484375 C 72.128906 114.484375 130.039062 92.101562 166.5625 90.453125 Z M 166.5625 90.453125 " fill-opacity="1" fill-rule="nonzero"/><path fill="#ffffff" d="M 128.703125 152.363281 C 109.527344 172.878906 102.28125 202.964844 110.203125 229.9375 C 111.535156 234.46875 118.636719 232.542969 117.296875 227.980469 C 110.117188 203.546875 116.488281 176.195312 133.894531 157.566406 C 137.125 154.109375 131.929688 148.898438 128.695312 152.363281 Z M 128.703125 152.363281 " fill-opacity="0.8" fill-rule="nonzero"/><path fill="#ffffff" d="M 120.453125 249.070312 C 125.183594 249.070312 125.199219 241.710938 120.453125 241.710938 C 115.707031 241.710938 115.707031 249.070312 120.453125 249.070312 Z M 120.453125 249.070312 " fill-opacity="0.8" fill-rule="nonzero"/></svg>