<svg xmlns="http://www.w3.org/2000/svg" xmlns:xlink="http://www.w3.org/1999/xlink" width="500" zoomAndPan="magnify" viewBox="0 0 375 374.999991" height="500" preserveAspectRatio="xMidYMid meet" version="1.0"><defs><clipPath id="59f3d4199e"><path d="M 256.9375 267.769531 L 375 267.769531 L 375 287.269531 L 256.9375 287.269531 Z M 256.9375 267.769531 " clip-rule="nonzero"/></clipPath><clipPath id="9fc2bc2bfd"><path d="M 75 111 L 300 111 L 300 332.144531 L 75 332.144531 Z M 75 111 " clip-rule="nonzero"/></clipPath><clipPath id="fdb21a85fb"><path d="M 100 161 L 300 161 L 300 332.144531 L 100 332.144531 Z M 100 161 " clip-rule="nonzero"/></clipPath></defs><rect x="-37.5" width="450" fill="#ffffff" y="-37.499999" height="449.999989" fill-opacity="1"/><rect x="-37.5" width="450" fill="#ffffff" y="-37.499999" height="449.999989" fill-opacity="1"/><g clip-path="url(#59f3d4199e)"><path fill="#ffffff" d="M 266.707031 267.886719 L 396.277344 267.769531 C 402.28125 267.757812 406.882812 273.054688 405.972656 278.933594 L 405.953125 279.050781 C 405.222656 283.78125 401.113281 287.269531 396.28125 287.269531 L 266.726562 287.269531 C 260.675781 287.269531 256.078125 281.890625 257.074219 275.980469 C 257.863281 271.316406 261.933594 267.894531 266.707031 267.886719 " fill-opacity="1" fill-rule="nonzero"/></g><path fill="#449e00" d="M 246.15625 43.230469 C 222.878906 44.664062 199.621094 56.566406 187.773438 77.246094 C 183.726562 84.304688 181.257812 92.085938 180.003906 100.101562 L 179.4375 104.972656 C 179.355469 105.988281 179.363281 107.109375 179.15625 108.097656 C 179.683594 110.609375 180.476562 112.921875 181.320312 115.332031 L 181.472656 115.09375 L 195.550781 114.53125 C 208.53125 113.464844 220.734375 110.125 231.726562 102.992188 C 245.566406 94.015625 255.898438 80.007812 261.851562 64.769531 C 264.375 58.304688 266.070312 51.792969 267.511719 45.019531 C 267.511719 45.015625 255.835938 42.636719 246.15625 43.230469 Z M 246.15625 43.230469 " fill-opacity="1" fill-rule="nonzero"/><path fill="#338a00" d="M 246.15625 43.230469 C 222.878906 44.664062 199.621094 56.566406 187.773438 77.246094 C 183.726562 84.304688 181.257812 92.085938 180.003906 100.101562 L 179.4375 104.972656 C 179.355469 105.988281 179.363281 107.109375 179.15625 108.097656 C 179.683594 110.609375 180.476562 112.921875 181.320312 115.332031 L 181.472656 115.09375 C 181.472656 115.09375 207.453125 68.847656 267.511719 45.015625 C 267.511719 45.015625 255.835938 42.636719 246.15625 43.230469 Z M 246.15625 43.230469 " fill-opacity="1" fill-rule="nonzero"/><g clip-path="url(#9fc2bc2bfd)"><path fill="#f57900" d="M 285.367188 167.101562 C 284.332031 165.3125 283.316406 163.5 282.203125 161.757812 C 280.664062 159.351562 279.050781 157.015625 277.328125 154.742188 C 274.84375 151.464844 272.128906 148.378906 269.230469 145.464844 C 266.714844 142.933594 264.179688 140.4375 261.453125 138.125 C 248.613281 127.234375 233.523438 119.261719 217.25 114.894531 C 212.992188 113.75 208.648438 112.933594 204.28125 112.332031 C 201.558594 111.957031 198.828125 111.640625 196.085938 111.515625 C 193.316406 111.390625 190.59375 111.605469 187.832031 111.714844 C 186.046875 111.785156 184.257812 111.859375 182.472656 111.929688 L 182.320312 112.167969 C 184.292969 117.699219 185.230469 123.910156 185.625 129.757812 C 183.628906 130.085938 181.570312 130.359375 179.542969 130.175781 L 178.871094 125.300781 C 178.082031 120.921875 177.128906 116.644531 175.269531 112.59375 C 170.503906 113.246094 165.394531 113.910156 160.726562 115.078125 C 135.96875 121.269531 113.292969 135.980469 97.894531 156.320312 C 80.738281 178.972656 72.90625 208.226562 76.890625 236.398438 C 80.417969 261.371094 92.464844 284.550781 110.941406 301.773438 C 114.582031 305.171875 118.589844 308.25 122.582031 311.222656 L 128.585938 315.148438 C 128.574219 315.15625 128.566406 315.160156 128.554688 315.164062 C 132.980469 317.714844 137.429688 320.179688 142.101562 322.261719 C 151.433594 326.425781 161.300781 329.285156 171.40625 330.835938 C 178.054688 331.855469 184.703125 332.136719 191.417969 331.957031 C 199.542969 331.742188 207.53125 330.8125 215.441406 328.890625 C 229.976562 325.359375 243.753906 318.710938 255.78125 309.867188 C 278.640625 293.054688 294.386719 267 298.605469 238.964844 C 302.296875 214.425781 297.824219 188.625 285.367188 167.101562 Z M 285.367188 167.101562 " fill-opacity="1" fill-rule="nonzero"/></g><path fill="#f59400" d="M 133.332031 149.824219 C 135.597656 149.582031 138.007812 149.671875 139.988281 150.949219 C 141.527344 151.941406 142.367188 153.835938 142.691406 155.585938 C 143.691406 160.980469 141.25 166.738281 138.21875 171.085938 C 134.199219 176.847656 128.078125 181.628906 121.050781 182.894531 C 118.601562 183.152344 116.214844 183.097656 114.097656 181.648438 C 112.433594 180.511719 111.449219 178.75 111.117188 176.789062 C 110.261719 171.75 112.640625 166.191406 115.515625 162.1875 C 119.679688 156.390625 126.144531 151.023438 133.332031 149.824219 Z M 133.332031 149.824219 " fill-opacity="1" fill-rule="nonzero"/><path fill="#137100" d="M 174.683594 111.90625 C 171.023438 103.460938 165.453125 95.597656 159.335938 89.292969 C 158.542969 88.480469 157.738281 87.683594 156.914062 86.90625 C 155.007812 85.105469 152.957031 83.492188 150.847656 81.953125 C 150.054688 81.375 149.304688 80.660156 149.019531 79.722656 C 148.8125 79.050781 148.871094 78.320312 149.070312 77.644531 C 149.492188 76.183594 150.390625 74.875 151.578125 73.929688 C 152.679688 73.050781 154.4375 72.207031 155.871094 72.609375 C 156.519531 72.789062 157.0625 73.226562 157.578125 73.664062 C 161.160156 76.703125 164.535156 80.054688 167.570312 83.640625 C 170.457031 87.046875 173.050781 90.695312 175.296875 94.550781 C 177.539062 98.398438 179.4375 102.449219 180.925781 106.648438 C 181.332031 107.804688 181.710938 108.96875 182.054688 110.144531 C 183.046875 113.523438 184.132812 116.8125 184.792969 120.28125 C 184.90625 120.894531 184.996094 121.515625 185.09375 122.132812 C 185.269531 123.242188 185.433594 124.351562 185.59375 125.464844 C 185.75 126.578125 185.902344 127.6875 186.023438 128.804688 C 186.078125 129.289062 186.175781 129.765625 186.175781 130.253906 C 186.175781 130.363281 186.179688 130.480469 186.15625 130.585938 C 186.144531 130.640625 186.117188 130.695312 186.074219 130.726562 C 186.019531 130.769531 185.949219 130.78125 185.882812 130.792969 C 185.488281 130.847656 185.09375 130.902344 184.699219 130.960938 C 184.214844 131.027344 183.726562 131.089844 183.234375 131.140625 C 182.746094 131.195312 182.253906 131.234375 181.765625 131.253906 C 181.269531 131.277344 180.773438 131.28125 180.277344 131.265625 C 180.261719 131.261719 180.242188 131.261719 180.226562 131.261719 C 180.15625 131.257812 180.089844 131.253906 180.019531 131.253906 C 179.691406 131.234375 179.421875 130.976562 179.375 130.652344 L 178.71875 125.894531 C 178.066406 121.160156 176.652344 116.449219 174.683594 111.90625 Z M 174.683594 111.90625 " fill-opacity="1" fill-rule="nonzero"/><path fill="#ea5e00" d="M 185.625 130.265625 C 185.882812 130.207031 186.140625 130.144531 186.394531 130.078125 C 188.171875 129.609375 189.914062 128.875 191.621094 128.195312 C 192.671875 127.773438 193.714844 127.34375 194.757812 126.902344 C 195.175781 126.722656 195.683594 126.582031 196.070312 126.335938 C 192.320312 128.722656 188.582031 131.570312 184.089844 132.355469 C 183.378906 132.480469 182.65625 132.546875 181.9375 132.546875 C 178.265625 132.539062 174.882812 130.773438 171.988281 128.65625 C 171.445312 128.257812 170.863281 127.816406 170.417969 127.316406 C 170.960938 127.628906 171.210938 127.746094 171.460938 127.875 C 171.824219 128.0625 172.191406 128.246094 172.558594 128.425781 C 173.285156 128.773438 174.023438 129.097656 174.777344 129.390625 C 176.402344 130.019531 178.203125 130.632812 179.953125 130.746094 C 181.855469 130.875 183.769531 130.6875 185.625 130.265625 Z M 185.625 130.265625 " fill-opacity="1" fill-rule="nonzero"/><g clip-path="url(#fdb21a85fb)"><path fill="#ea5e00" d="M 285.367188 167.101562 C 284.375 165.386719 283.398438 163.648438 282.339844 161.976562 C 285.292969 176.257812 285.707031 191.082031 283.535156 205.507812 C 278.917969 236.191406 261.6875 264.707031 236.667969 283.105469 C 223.503906 292.785156 208.429688 300.0625 192.519531 303.925781 C 183.863281 306.027344 175.121094 307.046875 166.230469 307.285156 C 158.875 307.480469 151.601562 307.171875 144.324219 306.054688 C 133.269531 304.355469 122.46875 301.226562 112.253906 296.671875 C 108.261719 294.890625 104.417969 292.855469 100.621094 290.722656 C 103.792969 294.621094 107.234375 298.320312 110.941406 301.773438 C 114.582031 305.171875 118.589844 308.25 122.582031 311.222656 L 128.585938 315.148438 C 128.574219 315.15625 128.566406 315.160156 128.554688 315.167969 C 132.980469 317.714844 137.429688 320.179688 142.101562 322.261719 C 151.433594 326.425781 161.300781 329.285156 171.40625 330.835938 C 178.054688 331.855469 184.703125 332.136719 191.417969 331.957031 C 199.542969 331.742188 207.53125 330.8125 215.441406 328.890625 C 229.976562 325.359375 243.753906 318.710938 255.78125 309.867188 C 278.640625 293.054688 294.386719 267 298.605469 238.964844 C 302.296875 214.425781 297.824219 188.625 285.367188 167.101562 Z M 285.367188 167.101562 " fill-opacity="1" fill-rule="nonzero"/></g></svg>